<?xml version="1.0" encoding="utf-8"?>
<!-- Generator: Adobe Illustrator 24.0.1, SVG Export Plug-In . SVG Version: 6.00 Build 0)  -->
<svg version="1.1" id="Layer_1" xmlns="http://www.w3.org/2000/svg" xmlns:xlink="http://www.w3.org/1999/xlink" x="0px" y="0px"
	 viewBox="0 0 140 70" style="enable-background:new 0 0 140 70;" xml:space="preserve">
<style type="text/css">
	.st0{fill:#FFFFFF;}
</style>
<path id="amazone" class="st0" d="M69.7,23.1c-6.3,0.2-9.2,1.9-9.2,1.9c-3.9,2.2-3.6,6.5-3.6,6.5c0,7.1,6.8,6.8,6.8,6.8
	c4.3,0,6.9-3.2,6.9-3.2c0.8,1.3,2.2,2.6,2.2,2.6c0.7,0.8,1.4,0.1,1.4,0.1l3.2-2.7c0.7-0.5,0.2-1.2,0.2-1.2l0,0l-1.3-2
	c-0.4-0.8-0.4-1.6-0.4-1.6v-9.4c0.2-8.1-8.8-7.4-8.8-7.4c-8,0-9.2,6.2-9.2,6.2C57.6,21,58.5,21,58.5,21l3.9,0.4c0,0,0.7,0.2,0.9-0.6
	c0,0,0.5-2.7,3.4-2.7c3.1,0,3.1,2.7,3.1,2.7L69.7,23.1L69.7,23.1z M65.8,34L65.8,34c-2,0-2.8-2-2.4-4c0.3-2,2.1-3.5,6.4-3.5v1.2
	C69.8,33,67.5,34,65.8,34z M20.7,34.1l-1.3-2C19,31.3,19,30.5,19,30.5v-9.4c0.1-8.1-8.9-7.4-8.9-7.4c-8,0-9.2,6.2-9.2,6.2
	c-0.3,1.3,0.6,1.3,0.6,1.3l3.9,0.4c0,0,0.7,0.2,0.9-0.6c0,0,0.5-2.7,3.4-2.7c3.1,0,3.1,2.7,3.1,2.7v2.3c-6.3,0.2-9.2,1.9-9.2,1.9
	C-0.3,27.4,0,31.7,0,31.7c0,7.1,6.8,6.8,6.8,6.8c4.3,0,6.9-3.2,6.9-3.2c0.8,1.3,2.2,2.6,2.2,2.6c0.7,0.8,1.4,0.1,1.4,0.1l3.2-2.7
	C21.2,34.8,20.7,34.1,20.7,34.1z M9,34L9,34c-2,0-2.8-2-2.4-4c0.3-2,2.1-3.5,6.4-3.5v1.2C13,33,10.7,34,9,34z M24.8,38.1h4.3
	c0.5,0,0.8-0.4,0.8-0.8V23.7c-0.1-4.7,2.9-4.3,2.9-4.3c3,0,2.8,3.5,2.8,3.5v14.4c0,0.5,0.4,0.8,0.8,0.8h4.3c0.5,0,0.8-0.4,0.8-0.8
	V23.7c0,0-0.3-4.3,3.1-4.3c0,0,2.7-0.2,2.6,3.1v14.8c0,0.5,0.4,0.8,0.8,0.8h4.3c0.5,0,0.8-0.4,0.8-0.8V23.7v-3.6
	c0-6.6-6.4-6.2-6.4-6.2C42.4,13.9,41,18,41,18c-1.7-4.6-5.8-4.1-5.8-4.1c-4.2,0-5.6,4.4-5.6,4.4v-3.1c0-0.5-0.4-0.8-0.8-0.8h-4
	c-0.5,0-0.8,0.4-0.8,0.8v22C24,37.7,24.3,38.1,24.8,38.1z M96.2,31.9c0,0-3.4-1.9-7.8-1.6l8.4-12.1V15c0-0.5-0.4-0.8-0.8-0.8H81.8
	c-0.5,0-0.8,0.4-0.8,0.8v3.1c0,0.5,0.4,0.8,0.8,0.8h7.4l-8.8,12.8c0,0-0.3,0.5-0.3,1.1v3.9c0,0-0.1,1.3,1.4,0.6c0,0,2.7-1.6,7.1-1.6
	c0,0,4.4-0.1,7.3,1.7c0,0,1.2,0.6,1.2-0.7v-3.4C97.2,33.3,97.3,32.5,96.2,31.9z M140,23.7c0-4.8-0.5-5.7-0.5-5.7c-1.5-4.7-6-4-6-4
	c-4.2,0-5.6,4.4-5.6,4.4v-3.1l0,0c0-0.5-0.4-0.8-0.8-0.8h-4c-0.5,0-0.8,0.4-0.8,0.8v22c0,0.5,0.4,0.8,0.8,0.8h4.3
	c0.5,0,0.8-0.4,0.8-0.8V24.7c0-5.4,2.9-5.3,2.9-5.3c3,0,2.8,3.5,2.8,3.5v14.4c0,0.5,0.4,0.8,0.8,0.8l4.4-0.1c0.5,0,0.8-0.4,0.8-0.8
	L140,23.7L140,23.7z M109.1,13.8c-5.5,0-9.9,4.6-9.9,12.4c0,6.8,3.4,12.4,9.9,12.4c6.1,0,9.9-5.5,9.9-12.4
	C119,18.5,114.6,13.8,109.1,13.8z M112.6,26.4c0,2.9-0.4,4.5-0.4,4.5c-0.5,3.1-2.8,3.1-3.1,3.1c-0.4,0-2.6,0-3.1-3.1
	c0,0-0.4-1.6-0.4-4.5v-0.5c0-2.9,0.4-4.5,0.4-4.5c0.5-3.1,2.7-3.1,3.1-3.1c0.3,0,2.6,0,3.1,3.1c0,0,0.4,1.6,0.4,4.5V26.4z M93.6,40
	c0,0-1.4-1.3-6.5-0.9c0,0-4.4,0.3-6.9,2.4c0,0-0.2,0.2-0.2,0.4c0,0-0.1,0.5,1.3,0.3c0,0,4.4-0.6,7.1-0.3c0,0,1.4,0.2,1.7,0.6
	c0,0,0.6,0.5,0.3,2.2c0,0-0.9,4.4-2.3,7l0,0c0,0-0.4,0.6,0.1,0.8c0,0,0.5,0.2,1.1-0.4c0,0,4.5-3.9,4.6-11.1C94,41.2,94,40.3,93.6,40
	z M87.2,45c-0.6-0.8-1.8-0.2-1.8-0.2C71,51,56.8,50.5,56.8,50.5c-20.3,0-35.8-9.7-35.8-9.7c-0.8-0.5-1.2,0-1.2,0
	c-0.4,0.5,0.2,1,0.2,1c16.5,15,36.2,14,36.2,14c19.2,0,30.6-9.1,30.6-9.1C87.9,45.9,87.2,45,87.2,45L87.2,45z"/>
</svg>
