<?xml version="1.0" encoding="utf-8"?>
<!-- Generator: Adobe Illustrator 24.0.1, SVG Export Plug-In . SVG Version: 6.00 Build 0)  -->
<svg version="1.1" id="Layer_1" xmlns="http://www.w3.org/2000/svg" xmlns:xlink="http://www.w3.org/1999/xlink" x="0px" y="0px"
	 viewBox="0 0 140 70" style="enable-background:new 0 0 140 70;" xml:space="preserve">
<style type="text/css">
	.st0{fill:#FFFFFF;}
</style>
<path id="aws" class="st0" d="M38.3,18.3c-1.2-0.2-2.4-0.3-3.5-0.3c-3.4,0-6.1,0.9-8.2,2.6c-2,1.7-3,4-3,6.8c0,2.7,0.8,4.8,2.5,6.4
	c1.6,1.6,3.9,2.4,6.7,2.4c3.9,0,7.2-1.5,9.8-4.6c0.4,0.8,0.7,1.4,1,2c0.3,0.5,0.7,1.1,1.2,1.6c0.3,0.3,0.7,0.5,1,0.5
	c0.3,0,0.6-0.1,0.9-0.3l2.1-1.4c0.4-0.3,0.6-0.7,0.6-1c0-0.2-0.1-0.5-0.2-0.8c-0.5-0.9-0.8-1.7-1.1-2.4c-0.2-0.7-0.4-1.7-0.4-3h0.1
	V16.1c0-3.7-0.9-6.4-2.8-8.2c-1.9-1.8-4.8-2.7-8.6-2.7c-1.8,0-3.6,0.2-5.2,0.6c-1.6,0.4-3,0.9-4.2,1.5C26.2,7.5,26,7.8,25.9,8
	c-0.2,0.2-0.2,0.6-0.2,1.2v1.6c0,0.7,0.2,1,0.7,1c0.1,0,0.3,0,0.5-0.1c0.2-0.1,0.6-0.2,1.2-0.4c1.2-0.5,2.4-0.8,3.6-1.1
	c1.2-0.3,2.4-0.4,3.6-0.4c2.6,0,4.4,0.5,5.4,1.5c1,0.9,1.6,2.8,1.6,5.3V19C40.9,18.7,39.7,18.5,38.3,18.3z M42.2,22.8v1.4
	c0,1.1-0.1,2.1-0.3,2.9c-0.2,0.8-0.6,1.5-1.1,2.1c-0.9,1-2,1.7-3.2,2.1c-1.2,0.3-2.3,0.6-3.4,0.6l0,0c-1.5,0-2.7-0.4-3.5-1.2
	c-0.8-0.8-1.2-2-1.2-3.5c0-1.7,0.5-2.9,1.6-3.8c1.1-0.9,2.7-1.3,5-1.3c1,0,2.1,0.1,3.1,0.2C40.3,22.4,41.3,22.5,42.2,22.8z M59,33.8
	c0.2,0.6,0.4,1.1,0.7,1.3c0.3,0.2,0.7,0.3,1.3,0.3h2.9c0.6,0,1.1-0.1,1.3-0.3c0.3-0.2,0.5-0.7,0.6-1.3l5-21.4L76,33.8
	c0.1,0.7,0.4,1.1,0.6,1.3c0.2,0.2,0.7,0.3,1.3,0.3h3c0.6,0,1-0.1,1.3-0.3c0.3-0.2,0.5-0.6,0.7-1.3l8-25.7C90.9,7.7,91,7.6,91,7.4
	s0.1-0.4,0.1-0.5c0-0.6-0.3-0.8-0.8-0.8h-3.1c-0.6,0-1,0.1-1.3,0.3c-0.2,0.2-0.5,0.6-0.7,1.3L79.5,30L74.2,7.7
	c-0.1-0.6-0.4-1.1-0.6-1.3c-0.3-0.2-0.7-0.3-1.3-0.3h-2.7c-0.6,0-1.1,0.1-1.3,0.3c-0.3,0.2-0.5,0.6-0.6,1.3l-5.2,22L57,7.7
	c-0.2-0.6-0.4-1.1-0.7-1.3c-0.2-0.2-0.7-0.3-1.3-0.3h-3.3c-0.5,0-0.8,0.3-0.8,0.8c0,0.2,0.1,0.7,0.3,1.3L59,33.8z M94.8,34.4
	c0.9,0.5,2.2,0.9,3.8,1.3c1.7,0.4,3.4,0.6,5,0.6l0,0c1.7,0,3.3-0.2,4.8-0.7c1.4-0.4,2.7-1,3.7-1.9c1-0.8,1.8-1.8,2.4-2.9
	s0.9-2.4,0.9-3.9c0-1.7-0.5-3.3-1.5-4.7c-1-1.4-2.8-2.4-5.2-3.2l-4.7-1.5c-1.8-0.6-3-1.2-3.7-1.8c-0.7-0.6-1-1.4-1-2.4
	c0-1.4,0.5-2.3,1.6-3c1-0.6,2.5-0.9,4.4-0.9c2.4,0,4.5,0.4,6.4,1.3c0.6,0.3,1,0.4,1.3,0.4c0.5,0,0.8-0.4,0.8-1.1V8.5
	c0-0.5-0.1-0.8-0.3-1.1c-0.2-0.3-0.5-0.6-1-0.8c-0.3-0.2-0.8-0.4-1.4-0.6c-0.6-0.2-1.2-0.4-1.9-0.5c-0.7-0.1-1.4-0.3-2.2-0.4
	C106.3,5,105.5,5,104.7,5c-1.5,0-2.9,0.2-4.2,0.6C99.2,6,98,6.6,97,7.3C96,8,95.2,9,94.6,10c-0.6,1.1-0.9,2.3-0.9,3.7
	c0,1.7,0.6,3.4,1.7,4.8c1.1,1.5,2.9,2.6,5.3,3.4l4.8,1.5c1.6,0.5,2.8,1.1,3.4,1.7s0.9,1.4,0.9,2.3c0,1.4-0.6,2.4-1.7,3.2
	c-1.1,0.7-2.8,1.1-4.9,1.1c-1.3,0-2.6-0.1-4-0.4c-1.3-0.3-2.5-0.7-3.7-1.2c-0.3-0.1-0.6-0.3-0.8-0.3c-0.2-0.1-0.4-0.1-0.6-0.1
	c-0.5,0-0.8,0.3-0.8,1v1.7c0,0.3,0.1,0.6,0.2,0.9C93.8,33.8,94.2,34.2,94.8,34.4z M108.4,50.1c-12.2,5.2-25.6,7.7-37.7,7.7
	c-18.1,0-35.3-5-49.6-13.2c-1.2-0.7-2.2,0.5-1.1,1.5C33.1,57.9,50.3,65,69.4,65c13.7,0,29.6-4.3,40.5-12.3l0,0
	C111.8,51.3,110.2,49.2,108.4,50.1z M119.2,43.9c-1.2-1.5-11.5-2.7-17.7,1.7c-1,0.7-0.8,1.6,0.3,1.5c3.6-0.4,11.4-1.4,12.8,0.4
	c1.4,1.8-1.6,9.2-2.9,12.5c-0.4,1,0.5,1.4,1.4,0.6C118.9,55.6,120.4,45.3,119.2,43.9z"/>
</svg>
