<?xml version="1.0" encoding="utf-8"?>
<!-- Generator: Adobe Illustrator 24.0.1, SVG Export Plug-In . SVG Version: 6.00 Build 0)  -->
<svg version="1.1" id="Layer_1" xmlns="http://www.w3.org/2000/svg" xmlns:xlink="http://www.w3.org/1999/xlink" x="0px" y="0px"
	 viewBox="0 0 140 70" style="enable-background:new 0 0 140 70;" xml:space="preserve">
<style type="text/css">
	.st0{fill:#FFFFFF;}
</style>
<path id="Azure" class="st0" d="M68.7,27h-1.4h-1.4l-4.5,11.7C59,45.2,57,50.4,56.9,50.5c0,0,0.3,0,1.5,0h1.5l1.1-3.2
	c0.6-1.7,1.1-3.2,1.2-3.3v-0.1h5h5l1.2,3.3l1.2,3.3h1.5c0.8,0,1.5,0,1.5,0S69,28.3,68.7,27.4V27z M71.3,41.4c0,0-1.8,0-4.1,0
	c-2.2,0-4.1,0-4.1,0s0.8-2.2,1.8-5c1-2.7,1.8-5.1,1.9-5.2c0.1-0.3,0.2-0.9,0.3-1.1c0-0.4,0.1-0.3,0.1,0c0.1,0.8,0.3,1.1,2.2,6.3
	C70.5,39.2,71.3,41.4,71.3,41.4z M20.2,32.8c4.5-9.7,8.3-17.8,8.4-18s0.1-0.3,0.1-0.3S25.2,17.4,21,21l-7.7,6.5L6.7,39
	C3,45.2,0,50.4,0,50.4s2.7,0,6,0h6L20.2,32.8z M41.2,36c-6.3-10.9-10.7-18.6-10.8-18.6c0,0.1-6.6,18-6.6,18.1c0,0,2.8,3.4,6.3,7.5
	l6.3,7.5h-0.1c-0.1,0-5.6,1-12.3,2.2l-12.2,2.1h40.1l0.1-0.1C51.9,54.6,47.1,46.2,41.2,36z M79.6,34.9V36h9l-4.9,6.8l-4.9,6.8v0.9
	h13.8v-2.3h-4.9c-2.7,0-4.9,0-4.9,0s2.2-3.1,4.9-6.8l4.9-6.8v-0.9h-13V34.9z M122.4,33.4c-0.5,0-0.7,0-0.9,0
	c-0.8,0.1-1.5,0.5-2.1,1.1c-0.7,0.6-1.2,1.5-1.5,2.3c-0.1,0.2-0.1,0.3-0.1,0.3s0-0.8,0-1.7v-1.7H115v8.4c0,4.6,0,8.4,0,8.4
	s0.6,0,1.4,0h1.3v-4.7c0-3.2,0-4.8,0-5c0.1-1.1,0.5-2.3,1.1-3.3c0.4-0.6,1-1.1,1.7-1.4c0.3-0.1,0.6-0.2,1.1-0.2
	c0.7,0,1.2,0.1,1.8,0.4l0.3,0.2v-2.8h-0.1C123.3,33.5,122.9,33.4,122.4,33.4z M140,40.7c-0.1-2.2-0.7-4-1.7-5.2
	c-1.1-1.3-2.6-2-4.3-2.2c-0.7-0.1-1.8,0-2.4,0.1c-1.1,0.2-2.1,0.7-3,1.4c-0.3,0.3-0.9,0.8-1.2,1.2c-1,1.3-1.7,3-1.9,4.8
	c-0.1,0.8-0.1,2.1,0,3c0.3,2.7,1.5,4.7,3.5,6c0.9,0.6,2.1,0.9,3.1,1c0.5,0,2.1,0,2.5,0c1.4-0.2,2.8-0.6,4-1.4l0.3-0.2v-1.3
	c0-1,0-1.3,0-1.2c0,0-0.1,0.1-0.3,0.2c-1,0.8-2.3,1.3-3.7,1.5c-0.5,0.1-1.5,0.1-2,0.1c-1.1-0.1-2.2-0.5-3-1.3
	c-0.4-0.4-0.9-1.1-1.2-1.8c-0.3-0.8-0.5-1.7-0.5-2.5v-0.3h5.9h5.9v-0.7C140,41.7,140,41.1,140,40.7z M137.2,40.5h-9.1v-0.1
	c0-0.3,0.2-0.8,0.3-1.2c0.3-0.9,0.8-1.7,1.5-2.3c0.6-0.6,1.3-1,2.2-1.2c0.4-0.1,1.2-0.1,1.6,0c0.8,0.1,1.5,0.5,2.1,1
	c0.8,0.8,1.4,2.3,1.4,3.6V40.5z M106.8,44.4l-0.1,0.4c-0.2,1.1-0.7,2-1.4,2.7c-0.6,0.6-1.2,0.9-2.1,1.1c-0.3,0.1-1.4,0.1-1.8,0
	c-0.8-0.2-1.4-0.5-1.9-1c-0.6-0.7-1-1.6-1.2-2.9c0-0.3-0.1-0.9-0.1-5.6v-5.3h-2.7v5.4c0,5.6,0,5.6,0.1,6.5c0.5,3.3,2.2,5,5.3,5.2
	c1.4,0.1,2.4-0.1,3.5-0.7c0.9-0.5,1.6-1.3,2.1-2.1c0.1-0.1,0.1-0.2,0.2-0.2c0,0,0,0.4,0,1.3v1.3h2.7V33.8h-2.8L106.8,44.4z"/>
</svg>
