<?xml version="1.0" encoding="utf-8"?>
<!-- Generator: Adobe Illustrator 24.0.1, SVG Export Plug-In . SVG Version: 6.00 Build 0)  -->
<svg version="1.1" id="Layer_1" xmlns="http://www.w3.org/2000/svg" xmlns:xlink="http://www.w3.org/1999/xlink" x="0px" y="0px"
	 viewBox="0 0 140 70" style="enable-background:new 0 0 140 70;" xml:space="preserve">
<style type="text/css">
	.st0{fill:#FFFFFF;}
</style>
<path id="justrite" class="st0" d="M53.2,39.6c0,0.9-0.1,2.1-1.7,2.1c-0.7,0-1.3-0.3-1.5-0.7c-0.3-0.4-0.3-0.9-0.3-1.6v-9.7h-5.4
	v9.7c0,2.1,0,3.5,0.8,4.6c0.9,1.3,2.3,1.9,4.1,1.9c2.5,0,3.9-1.1,4.4-2.9l1,2.6h4.1V29.8h-5.4L53.2,39.6L53.2,39.6z M70,36.4
	c-1.5-0.8-3.4-1.3-3.4-2.3c0-0.5,0.4-0.9,1.6-0.9c1.5,0,3.6,0.7,3.6,0.7H72v-3.8c0,0-1.7-0.5-4.1-0.5c-4.2,0-6.7,1.8-6.7,4.9
	c0,2.1,1.1,3.3,2.3,4c1.8,1.1,3.8,1.4,3.8,2.7c0,0.7-0.5,1-1.7,1c-1.7,0-4.1-0.8-4.1-0.8h-0.2v3.8c0,0,1.8,0.7,4.5,0.7
	c4.8,0,6.9-2.1,6.9-5.1C72.7,38.4,71.4,37.2,70,36.4z M81.8,25.3l-5.3,1.3V30h-2.4v3.8h2.4v6.2c0,1.5,0,2.9,0.8,4
	c0.8,1.3,2.4,1.8,4.9,1.8c1.9,0,3.2-0.3,3.2-0.3v-3.8h-0.2c0,0-0.8,0.2-1.7,0.2c-0.7,0-1.2-0.1-1.4-0.5c-0.3-0.4-0.3-1-0.3-1.6v-6
	h3.6v-3.8h-3.6V25.3z M35.4,38.5c0,1,0,1.7-0.4,2.4c-0.5,0.7-1.2,0.8-1.9,0.8c-1,0-2.1-0.3-2.1-0.3h-0.2v4.1c0,0,1.1,0.3,2.8,0.3
	c2.6,0,4.9-0.7,6.1-2.5c1.1-1.7,1.1-3.6,1.1-5.3V24.5h-5.4V38.5z M133.3,32c-1.1-1.6-3-2.6-5.8-2.6c-5.1,0-7.3,3.5-7.3,8.4
	c0,2.6,0.6,4.7,2.1,6.1c1.3,1.2,3.2,2,6.2,2c2.8,0,5.1-0.6,5.1-0.6l0,0v-3.8h-0.2c0,0-2.5,0.7-4.4,0.7c-2.3,0-3.4-1.1-3.4-3h8.9
	C134.6,36,134.6,33.7,133.3,32z M125.5,36.1c0-2,0.5-3.3,2-3.3c1.4,0,1.8,1.2,1.8,3.3H125.5z M93.2,32.9l-1-3.1h-4.1v15.8h5.4v-8.5
	c0-1.1,0-2.6,2.6-2.6c0.9,0,1.9,0.2,1.9,0.2v-5.2h-0.3C95.3,29.5,93.7,30.3,93.2,32.9z M102.6,22.9c-1.9,0-3,0.9-3,2.7
	c0,1.8,1.1,2.7,3,2.7s3-0.9,3-2.7C105.5,23.8,104.4,22.9,102.6,22.9z M114.9,25.3l-5.3,1.3V30h-2.4v3.8h2.4v6.2c0,1.5,0,2.9,0.8,4
	c0.8,1.3,2.4,1.8,4.9,1.8c1.9,0,3.2-0.3,3.2-0.3v-3.8h-0.2c0,0-0.8,0.2-1.7,0.2c-0.7,0-1.2-0.1-1.4-0.5c-0.3-0.4-0.3-1-0.3-1.6v-6
	h3.6v-3.8h-3.6V25.3z M99.9,45.6h5.2V29.8h-5.2V45.6z M13.2,22C5.6,22-0.5,28.3,0,35.9c0.4,6.4,5.7,11.6,12.2,12
	C20,48.6,26.4,42.5,26.4,35C26.4,27.8,20.5,22,13.2,22z M13.1,46c-2,0-3.9-1.6-3.9-3.8c0-3.1,3.1-4.7,3.9-9c0.8,4.2,3.9,6.3,3.9,9
	C17,44.5,15.1,46,13.1,46z M21.8,41.9c0.4-0.9,0.7-1.8,0.8-2.9c0.5-4.5-1.3-6.4-4.1-8.8c0.7,2.5-1,4-1.1,4c0.5-5.3-3.1-6.9-6.2-9.3
	c0.1,3.7-1.4,7.8-3.8,10.5c0,0,0.3-2.4-0.9-3.7c0,2.6-3.1,5.7-2.6,9.2c-1.1-1.6-1.8-3.5-2-5.5C1.5,29.1,6.6,23.8,13,23.8
	c6.1,0,11.1,4.9,11.1,11C24.4,37.7,23.4,40.1,21.8,41.9z M139.3,43.6l-0.6,1.4l-0.6-1.4h-0.6v2h0.4v-1.5l0.6,1.4h0.4l0.6-1.4v1.5
	h0.5v-2H139.3z M135.4,43.9h0.6v1.6h0.4v-1.6h0.6v-0.3h-1.6V43.9z"/>
</svg>
