<?xml version="1.0" encoding="utf-8"?>
<!-- Generator: Adobe Illustrator 24.0.1, SVG Export Plug-In . SVG Version: 6.00 Build 0)  -->
<svg version="1.1" id="Layer_1" xmlns="http://www.w3.org/2000/svg" xmlns:xlink="http://www.w3.org/1999/xlink" x="0px" y="0px"
	 viewBox="0 0 140 70" style="enable-background:new 0 0 140 70;" xml:space="preserve">
<style type="text/css">
	.st0{fill:#FFFFFF;}
</style>
<path id="lamp" class="st0" d="M49.1,38.2c-5.2-0.2-10.6-0.1-16-0.1v21.5h5.2c0-2.1-0.1-4,0-5.9c0-0.7,0.5-2,0.8-2
	c2.5-0.2,5-0.2,7.6,0c0.4,0,0.9,1.2,0.9,1.9c0.1,2,0,4,0,6.4c2.1-1,5.1,1.6,5.4-2.1c0.3-4.9,0.1-9.9,0-14.9
	C53.1,40.5,51.8,38.3,49.1,38.2z M47.8,49.1c-1.5,0-2.4,0-3.3,0c-6.7,0-6.8,0-6-6.6c0.1-0.8,1.3-1.6,2.2-2c0.8-0.3,1.8-0.1,2.7-0.1
	c3.7,0,4.4,0.7,4.4,4.4C47.8,46.1,47.8,47.4,47.8,49.1z M27.7,57.5c-2.5-0.1-5.1-0.1-7.6-0.1c-4.4,0-4.4,0-4.4-4.3
	c0-4.9,0-9.9,0-14.8c-1-0.1-1.6-0.2-2.2-0.2c-0.9,0-1.8,0-3.3,0c0,6.3-0.2,12.3,0.1,18.2c0.1,1.2,1.9,3.2,3.1,3.3
	c4.7,0.4,9.6,0.2,14.4,0.1c0.5,0,1-0.7,1.5-1C28.7,58.3,28.2,57.5,27.7,57.5z M107.4,0c0.5,1.7,1,2.9,1.2,4.2
	c0.6,3.2,1.3,6.3,1.5,9.5c0.2,2.6-1.2,4.7-4,5.4c-5.8,1.4-7.8,5.9-9.5,10.8c1.7,1.5,2.4,0.8,3-0.8c1.1-3,2.7-5.6,6-6.8
	c5.4-1.9,7.1-4.5,6.9-10.2c-0.1-1.6-0.2-3.2-0.4-5.5c7.7,6.7,13.2,14,14.7,23.6c1.8,10.9-1.6,23-15.1,26.4c-2,0.5-2,1.5-1.4,3.1
	c8.7-1,15.8-7,18.2-15C134.2,26,122.1,8.1,107.4,0z M81.6,43.8c-0.1-2.6-1.1-5.2-4-5.3c-6.5-0.3-13.2-0.1-20.1-0.1
	c0,6.4,0,12.6,0,18.7c0,1.9,0.7,2.5,2.5,2.5c2,0,2.3-1,2.3-2.7c-0.1-4.5,0-8.9,0-13.4c0-1.6-0.2-3.3,2.3-3.4c2.6,0,2.3,1.6,2.3,3.3
	c0,4.5,0,8.9,0,13.4c0,1.8,0.5,2.8,2.6,2.8s2.5-1,2.5-2.8c-0.1-4.7-0.1-9.3,0-14c0-0.9,0.9-1.7,1.4-2.6c1,0.6,2.1,1,2.8,1.9
	c0.5,0.6,0.4,1.7,0.4,2.6c0,4.1,0.1,8.3,0,12.4c0,2,0.9,2.4,2.6,2.4c1.5,0,2.5-0.3,2.5-2.2C81.6,52.9,81.8,48.3,81.6,43.8z
	 M110.2,42.6c-0.1,3,0,5.9,0,9.1c4.8-1,8.6-3.1,10.9-7.3c4-7.3,1.7-20.6-4.7-26.5c-1.5,4.3-3.9,7.6-8.5,8.9
	c-2.8,0.7-3.9,2.6-4.5,5.5C108.9,33.8,110.4,37.7,110.2,42.6z M104,38.5c-0.3-0.2-0.8-0.4-1.1-0.4c-5.3,0-10.8,0-16.3,0v21.5h5.4
	c0-2.4,0.1-4.7,0-7c-0.1-1.9,0.7-2.5,2.5-2.5c2.3,0.1,4.7,0,7,0c2.2,0,4.1-0.7,4.2-3C106,44.2,107.4,40.8,104,38.5z M96.7,47.8
	c-4.6,0-4.3,0-4.7-3.8c-0.3-3.6,1.6-3.6,4.2-3.6c4.3,0.1,4.1,0.1,4.3,3.9C100.8,47.8,98.9,48.1,96.7,47.8z"/>
</svg>
