<?xml version="1.0" encoding="utf-8"?>
<!-- Generator: Adobe Illustrator 24.0.1, SVG Export Plug-In . SVG Version: 6.00 Build 0)  -->
<svg version="1.1" id="Layer_1" xmlns="http://www.w3.org/2000/svg" xmlns:xlink="http://www.w3.org/1999/xlink" x="0px" y="0px"
	 viewBox="0 0 140 70" style="enable-background:new 0 0 140 70;" xml:space="preserve">
<style type="text/css">
	.st0{fill:#FFFFFF;}
</style>
<path id="make" class="st0" d="M36.4,37.8c0-1.7,0-3.3,0-5c0-4.1,0-4-4.2-4c-1.1,0-1.5,0.4-1.5,1.5c0.1,4,0,8,0,12
	c0,4.2,0,4.2,4.3,4.2c1.2,0,1.5-0.5,1.4-1.5C36.4,42.6,36.4,40.2,36.4,37.8z M28.4,29.3c-1-0.1-1.9-0.3-2.8-0.5
	c-0.8-0.2-1.1,0.1-1.2,0.8c-1,5-2,9.9-3,14.9c-0.1,0.4,0.3,1.2,0.6,1.3c1,0.4,2.2,0.5,3.7,0.8c0.2-0.3,0.8-0.7,0.9-1.2
	c1.1-4.7,2-9.4,3-14.1C29.9,30.2,29.7,29.5,28.4,29.3z M22.9,31.4c-0.2-0.2-0.3-0.4-0.4-0.5c-0.9-0.5-1.7-0.9-2.6-1.3
	c-1.8-0.9-1.8-0.9-2.7,0.9c-2.1,4.1-4.1,8.1-6.2,12.2c-0.2,0.5-0.6,0.8-1,1.3v0.3c1.2,0.6,2.5,1.2,3.7,1.8c0.9,0.5,1.4,0.3,1.9-0.6
	c1.9-3.7,3.9-7.4,5.8-11.2C22,33.2,22.5,32.2,22.9,31.4z M73.9,33.6c-0.3-2.9-2.4-4.7-5.4-5.1c-2.7-0.4-5.1,0.3-7.1,2.2
	c-3.3-3-6.4-3.1-10.3-0.3c0.2-1.5-0.6-1.8-1.8-1.7c-0.9,0.1-1.7,0.1-2.6,0c-1.2-0.1-1.6,0.4-1.6,1.6c0.1,4,0,8.1,0,12.1
	c0,4.3,0,4.3,4.5,4.2c1.2,0,1.5-0.4,1.5-1.5c-0.1-2.9,0-5.7,0-8.7c0-0.6,0.2-1.3,0.5-1.8c0.8-1.1,2-1.5,3.3-1
	c1.2,0.4,1.7,1.4,1.7,2.5c0,3,0,5.9,0,9c0,1.1,0.3,1.5,1.4,1.4c1.1-0.1,2.1-0.1,3.2,0c1,0.1,1.3-0.3,1.3-1.3c0-2.9,0-5.8,0-8.8
	c0-0.6,0.2-1.2,0.5-1.7c0.8-1.1,1.8-1.6,3.2-1.3c1.5,0.4,1.9,1.5,2,2.7c0.1,2.5,0,5,0.1,7.5c0,3.2-0.5,2.8,2.8,2.8
	c3.5,0,3.1,0.4,3.1-3C74.1,40.2,74.2,36.9,73.9,33.6z M111.5,30.3c0.3-0.3,0.4-0.7,0.6-1.1c-0.4-0.1-0.8-0.4-1.2-0.4
	c-1.1-0.1-2.3,0.1-3.4,0c-1.3-0.1-2.3,0.3-3.2,1.3c-1.2,1.3-2.5,2.3-4.1,3.7c0-3.2,0-6.1,0-9c0-0.6-0.2-1.3-0.3-1.8h-5.2
	c-0.1,0.6-0.3,1.2-0.3,1.8c0,5.9,0,11.9,0,17.8c0,4.5,0,4.5,4.6,4.2c0.8-0.1,1.2-0.3,1.2-1.2c0-1.3,0.1-2.6,0-3.9
	c-0.2-1.6,0.5-2.5,1.9-3.3c1.3,2.4,2.6,4.8,3.9,7.1c0.2,0.4,0.6,1.1,0.9,1.1c2,0.1,3.9,0.1,6.3,0.1c-2.4-4.2-4.5-8-6.7-11.9
	C108.3,33.2,109.9,31.8,111.5,30.3z M92.5,35.5c0-4.3-1.9-6.5-6.3-7c-3.7-0.5-7.2,0-9.6,3.3c-1,1.4-0.8,1.8,0.9,2.2
	c0.6,0.1,1.2,0.2,1.8,0.4c1,0.4,1.7,0.2,2.4-0.7c1.3-1.6,4.1-1.1,4.9,0.8c-0.5,0.1-1,0.3-1.4,0.4c-2.1,0.6-4.1,1.1-6.1,1.8
	c-2.6,1-3.6,2.5-3.5,5.1c0.1,2.2,1.5,4.1,3.9,4.9c2.6,0.9,4.9,0.4,6.6-0.9c1,0.4,1.6,0.8,2.3,0.9c0.8,0.1,1.7,0,2.6,0
	c1.1,0.1,1.5-0.3,1.5-1.5C92.5,42,92.5,38.7,92.5,35.5z M83.9,42.6c-1,0.2-2-0.1-2.4-1.2c-0.3-1.1,0.5-1.7,1.4-1.9
	c1.1-0.4,2.3-0.7,3.6-1.1C86.9,41.2,86.3,42.2,83.9,42.6z M128.2,39.1c0.6,0,1.2-0.2,1.8-0.3V36c-0.1-0.3-0.2-0.6-0.3-1
	c-0.8-4-4.1-6.7-8.3-6.8c-4.5-0.1-8.3,2.5-9.4,6.6c-1.2,4.4,0.5,8.9,4.3,10.9c4,2.1,9.8,1.4,12.5-1.5c0.8-0.9,1-1.6-0.3-2.2
	c-0.9-0.5-1.7-1.1-2.5-1.6c-2.9,2.2-4.4,2.6-6.4,1.7c-1.2-0.6-2-1.6-2-3.1C121.2,39.1,124.7,39.1,128.2,39.1z M120.5,32.7
	c2-0.2,3.2,0.8,3.5,2.9h-6.1C117.7,34,118.7,32.8,120.5,32.7z"/>
</svg>
