<?xml version="1.0" encoding="utf-8"?>
<!-- Generator: Adobe Illustrator 24.0.1, SVG Export Plug-In . SVG Version: 6.00 Build 0)  -->
<svg version="1.1" id="Layer_1" xmlns="http://www.w3.org/2000/svg" xmlns:xlink="http://www.w3.org/1999/xlink" x="0px" y="0px"
	 viewBox="0 0 140 70" style="enable-background:new 0 0 140 70;" xml:space="preserve">
<style type="text/css">
	.st0{fill:#FFFFFF;}
</style>
<path id="belkin" class="st0" d="M125.8,33.2c-5.3,0-7.9,3-7.9,8.2v9.3h4.5v-9.3c0-2.5,1-4,3.4-4c2.4,0,3.4,1.5,3.4,4v9.3h4.5v-9.3
	C133.7,36.2,131.1,33.2,125.8,33.2z M85.6,50.7h4.5V27.4h-4.5V50.7z M108.8,33.9h-5.2l-6,7.5v-14h-4.5v23.3h4.5v-8.1l6,8.1h5.5
	l-7-9.1L108.8,33.9z M110.8,50.8h4.5V33.9h-4.5V50.8z M21.8,19.9c0-2.2-1.8-3.9-3.9-3.9c-2.2,0-3.9,1.8-3.9,3.9
	c0,2.2,1.8,3.9,3.9,3.9S21.8,22,21.8,19.9z M14.3,27.7c-1.4,0-2.6,1.2-2.6,2.6c0,1.4,1.2,2.6,2.6,2.6s2.6-1.2,2.6-2.6
	C17,28.9,15.8,27.7,14.3,27.7z M2.6,26.6c-1.5,0-2.6,1.2-2.6,2.6c0,1.4,1.2,2.6,2.6,2.6s2.6-1.2,2.6-2.6C5.2,27.8,4.1,26.6,2.6,26.6
	z M18.7,30.4c0,1.4,1.2,2.6,2.6,2.6c1.4,0,2.6-1.2,2.6-2.6s-1.2-2.6-2.6-2.6C19.9,27.7,18.7,28.9,18.7,30.4z M33,26.6
	c-1.4,0-2.6,1.2-2.6,2.6c0,1.4,1.2,2.6,2.6,2.6c1.4,0,2.6-1.2,2.6-2.6C35.6,27.8,34.5,26.6,33,26.6z M14.3,34.8
	c-1.4,0-2.6,1.2-2.6,2.6c0,1.4,1.2,2.6,2.6,2.6s2.6-1.2,2.6-2.6C17,36,15.8,34.8,14.3,34.8z M24,37.4c0-1.4-1.2-2.6-2.6-2.6
	s-2.6,1.2-2.6,2.6c0,1.4,1.2,2.6,2.6,2.6S24,38.8,24,37.4z M10.8,48.8c-1.4,0-2.6,1.2-2.6,2.6c0,1.4,1.2,2.6,2.6,2.6
	s2.6-1.2,2.6-2.6C13.4,50,12.3,48.8,10.8,48.8z M24.8,48.8c-1.4,0-2.6,1.2-2.6,2.6c0,1.4,1.2,2.6,2.6,2.6c1.4,0,2.6-1.2,2.6-2.6
	C27.4,50,26.3,48.8,24.8,48.8z M113.1,26.6c-1.4,0-2.6,1.2-2.6,2.6c0,1.4,1.2,2.6,2.6,2.6s2.6-1.2,2.6-2.6
	C115.6,27.7,114.5,26.6,113.1,26.6z M135.9,49h0.7v1.7h0.3V49h0.7v-0.3H136V49H135.9z M139.6,48.7l-0.7,1.5l0,0l-0.7-1.5h-0.4v2h0.3
	v-1.5l0,0l0.7,1.5h0.2l0.7-1.5l0,0v1.5h0.3v-2H139.6z M56.1,33.3c-2.5,0-4.3,1.1-5.3,2.3v-8.4h-4.7v15c0,5.3,3.7,9,9,9s9-3.7,9-9
	S60.9,33.3,56.1,33.3z M55.2,47c-2.5,0-4.5-2.1-4.5-4.8s1.9-4.8,4.5-4.8c2.5,0,4.5,2.1,4.5,4.8C59.6,45,57.7,47,55.2,47z M74.7,33.2
	c-5,0-8.8,3.9-8.8,9.1c0,5.3,3.6,8.8,9.1,8.8c3.2,0,5.4-1.2,6.7-2.2l-2.3-3.1c-1.2,1.1-2.7,1.5-4.5,1.5c-2.4,0-4.3-1.5-4.6-3.6h12.8
	c0-0.2,0.1-0.9,0.1-1.3C83.2,36.7,80,33.2,74.7,33.2z M70.4,40.7c0.3-2.1,1.7-3.7,4.2-3.7s3.8,1.6,4.1,3.7H70.4z"/>
</svg>
