<?xml version="1.0" encoding="utf-8"?>
<!-- Generator: Adobe Illustrator 24.0.1, SVG Export Plug-In . SVG Version: 6.00 Build 0)  -->
<svg version="1.1" id="Layer_1" xmlns="http://www.w3.org/2000/svg" xmlns:xlink="http://www.w3.org/1999/xlink" x="0px" y="0px"
	 viewBox="0 0 140 70" style="enable-background:new 0 0 140 70;" xml:space="preserve">
<style type="text/css">
	.st0{fill:#FFFFFF;}
</style>
<path id="filestage" class="st0" d="M133,42.1v-3h6v-2.6h-6v-2.9h6.7v-2.6h-9.8v13.7H140v-2.5H133z M55.3,30.9h-3v13.8h8.8V42h-5.8
	V30.9z M33.5,44.7h3.1v-5.4h5.9v-2.6h-5.9v-3h6.3v-2.7h-9.4V44.7z M45.6,44.6h2.9V30.9h-2.9V44.6z M66.6,39.1h6v-2.7h-6v-2.9h6.7
	v-2.6h-9.7v13.7h9.9V42h-6.9V39.1z M108,32.7c-0.8-1.9-0.8-1.8-2.8-1.9c-0.7,0-1,0.2-1.3,0.8c-1.7,4-3.4,8.1-5.2,12.2
	c-0.1,0.3-0.2,0.5-0.3,0.9c1,0,1.8,0.1,2.6,0c0.3,0,0.8-0.3,0.8-0.6c0.4-2.2,1.9-2.6,3.8-2.3c0.3,0,0.6,0,0.8,0
	c1.7-0.3,2.7,0.3,3.1,2c0.1,0.4,0.6,0.8,1,0.9c0.8,0.1,1.7,0,2.6,0c-0.2-0.4-0.3-0.7-0.4-0.9C111.2,40,109.6,36.4,108,32.7z
	 M104.1,38.9c0.5-1.3,1.1-2.5,1.7-3.9c0.6,1.4,1.1,2.6,1.7,3.9H104.1z M83.3,36.7c-0.8-0.3-1.7-0.5-2.6-0.7
	c-0.8-0.3-1.8-0.5-1.5-1.7c0.3-1.1,1.2-1.1,2.1-0.9c1.1,0.2,2.2,0.7,3.3,1.1c0.4-0.6,0.9-1.3,1.4-2.1c-2.4-1.7-4.8-2.3-7.6-1.3
	c-1.7,0.6-2.5,1.8-2.5,3.6s0.7,3,2.4,3.6c1.2,0.5,2.5,0.7,3.7,1.2c0.5,0.2,1,1,0.9,1.4c-0.1,0.4-0.9,1-1.4,1c-0.9,0-1.8-0.3-2.7-0.6
	c-0.7-0.3-1.2-0.8-1.8-1.2c-0.6,0.7-1.2,1.4-1.8,2.2c2,1.9,4.3,2.7,6.9,2.4c2.2-0.2,3.8-1.7,4-3.5C86.6,38.9,85.7,37.6,83.3,36.7z
	 M123.9,37.7c0,1,0,2,0,3c0,0.3-0.3,0.8-0.5,1c-2.2,1.1-4.9,0.1-5.7-2.1c-1-2.5,0.2-5.2,2.6-6.1c1.8-0.6,3.2,0.1,4.6,1.2
	c0.5-0.8,1-1.5,1.6-2.3c-1.9-1.7-4.1-2.3-6.5-1.8c-3.1,0.6-5.3,2.9-5.8,6.2c-0.4,2.9,1,5.8,3.6,7.3c2.6,1.4,6.6,1,8.6-0.9
	c0.2-0.2,0.5-0.5,0.5-0.8c0.1-1.5,0-3,0-4.6H123.9L123.9,37.7z M98.7,30.9H88v2.7h3.8v11.1h3.1V33.6h3.8V30.9L98.7,30.9z M11,34.1
	c0-3-2.5-5.5-5.5-5.5S0,31.1,0,34.1c0,3,2.5,5.5,5.5,5.5C8.5,39.5,11,37.1,11,34.1z M20.1,23c-3.9,0-7,3.2-7,7.1
	c0,3.9,3.2,7.1,7,7.1c3.9,0,7-3.2,7-7.1C27.2,26.2,24,23,20.1,23z M12.6,39.1c-2.2,0-3.9,1.8-3.9,3.9c0,2.2,1.8,3.9,3.9,3.9
	c2.2,0,3.9-1.8,3.9-3.9C16.5,40.8,14.7,39.1,12.6,39.1z"/>
</svg>
