<?xml version="1.0" encoding="utf-8"?>
<!-- Generator: Adobe Illustrator 24.0.1, SVG Export Plug-In . SVG Version: 6.00 Build 0)  -->
<svg version="1.1" id="Layer_1" xmlns="http://www.w3.org/2000/svg" xmlns:xlink="http://www.w3.org/1999/xlink" x="0px" y="0px"
	 viewBox="0 0 140 70" style="enable-background:new 0 0 140 70;" xml:space="preserve">
<style type="text/css">
	.st0{fill:#FFFFFF;}
</style>
<path id="linksys" class="st0" d="M45,23.3c-3.3,0-5.7,1.3-7.1,3.8v-3.3h-5.2v23.5h5.2V34.7c0-4.2,1.4-7.3,5.4-7.3s4.4,3.1,4.4,6.2
	v13.5h5.2V32.5C52.9,26.9,50.6,23.3,45,23.3z M77,23.8h-6.2l-8.6,9.5V15.6H57v31.6h5.2v-7.6l2.5-2.6L72,47.3h6l-9.9-13.8L77,23.8z
	 M89.5,33.2l-3.3-0.7c-2-0.4-3.1-1.2-3.1-2.8s2.1-2.6,4.3-2.6c2.6,0,4.6,0.8,5.1,2.9h4.9c-1-4.7-5.1-7-9.7-7c-5,0-9.5,2.6-9.5,6.9
	c0,4.3,3.1,6,7,6.9l3.5,0.7c2.3,0.5,4,1.3,4,3.2s-2,3-4.7,3c-3.1,0-4.8-1.3-5.2-3.8h-5c0.6,4.4,4.4,7.8,10.1,7.8
	c5.3,0,9.9-2.7,9.9-7.6C97.9,35.7,94.3,34.1,89.5,33.2z M109,40.7l-5.3-16.8h-5.6l8.5,23.4l-0.3,0.6c-1,3-2,3.2-4.3,3.2h-2V55h2.3
	c5.2,0,6.8-1.6,9-7.7l8.2-23.5h-5.3L109,40.7z M131.7,33.2l-3.3-0.7c-2-0.4-3.1-1.2-3.1-2.8s2.1-2.6,4.3-2.6c2.6,0,4.6,0.8,5.1,2.9
	h4.9c-1-4.7-5.1-7-9.7-7c-5,0-9.5,2.6-9.5,6.9c0,4.3,3.1,6,7,6.9l3.5,0.7c2.3,0.5,4,1.3,4,3.2s-2,3-4.7,3c-3.1,0-4.8-1.3-5.2-3.8h-5
	c0.6,4.4,4.4,7.8,10.1,7.8c5.3,0,9.9-2.7,9.9-7.6C140,35.7,136.4,34.1,131.7,33.2z M5.5,15.6H0v31.6h28.5v-4.6h-23V15.6z M25.2,15
	c-2.3,0-4.1,1.8-4.1,4.1s1.8,4.1,4.1,4.1s4.1-1.8,4.1-4.1S27.4,15,25.2,15z M9.6,38.8h18.9v-4.6H15.1V15.6H9.6V38.8L9.6,38.8
	L9.6,38.8z"/>
</svg>
