<?xml version="1.0" encoding="utf-8"?>
<!-- Generator: Adobe Illustrator 24.0.1, SVG Export Plug-In . SVG Version: 6.00 Build 0)  -->
<svg version="1.1" id="Layer_1" xmlns="http://www.w3.org/2000/svg" xmlns:xlink="http://www.w3.org/1999/xlink" x="0px" y="0px"
	 viewBox="0 0 140 70" style="enable-background:new 0 0 140 70;" xml:space="preserve">
<style type="text/css">
	.st0{fill:#FFFFFF;}
</style>
<path id="monday" class="st0" d="M72.2,29c-0.8,0-2.3,0.2-3.4,2c-0.6-1.3-1.8-2-3.6-2c-1.3,0-2.4,0.7-3,1.9v-1.6h-3.4v11.3h3.4v-6
	c0-1.7,0.9-2.3,2-2.3c1,0,1.8,0.8,1.9,2.2v6.1h3.4v-6c0-1.6,0.9-2.3,1.9-2.3l0,0c1,0,1.9,0.8,1.9,2.3v6h3.3v-6.4
	C76.5,30.7,74.9,29,72.2,29z M44.5,37.7c-3.4,0-6.2,2.7-6.2,6c0,3.3,2.8,6,6.2,6c3.4,0,6.2-2.7,6.2-6C50.7,40.4,48,37.7,44.5,37.7z
	 M42,28.7c1.7-3,0.7-6.7-2.3-8.4c-3-1.7-6.7-0.7-8.4,2.3L20.1,40.3c-0.6,1-0.9,2.1-0.9,3.3c0,3.4,2.8,6.2,6.2,6.2
	c2.1,0,4.1-1.1,5.2-2.9l11.1-17.8C41.8,29,41.9,28.8,42,28.7z M20.6,20.6c-2.9-1.8-6.7-0.9-8.5,2L0.9,40.3c-0.6,1-0.9,2.1-0.9,3.3
	c0,3.4,2.8,6.2,6.2,6.2c2.1,0,4.1-1.1,5.2-2.9l11.1-17.8C24.4,26.2,23.5,22.4,20.6,20.6z M123.9,30.5c-0.9-1.3-2.6-1.5-3.3-1.5h-0.1
	c-3.2,0.1-5.7,2.7-5.7,5.9V35c0,3.2,2.6,5.8,5.8,5.8c0.9,0,2.6-0.4,3.3-1.5v1.3h3.3V29.2h-3.3V30.5z M121.2,37.6
	c-1.4,0-2.9-1.1-2.9-2.7s1.4-2.7,2.9-2.7c1.4,0,2.7,1,2.7,2.7S122.6,37.6,121.2,37.6z M136.3,29.2l-2.5,6.4l-2.5-6.4h-3.6l4.4,10.2
	l-2.7,6.7h3.6l7-16.9H136.3z M110.6,30.6c-0.6-1-1.9-1.6-3.3-1.6c-2.9,0-5.5,2.3-5.5,5.9s2.6,5.9,5.5,5.9c1.4,0,2.8-0.6,3.3-1.6v1.4
	h3.3V23.1h-3.3V30.6z M107.9,37.6c-1.4,0-2.6-1.1-2.6-2.7s1.2-2.7,2.6-2.7s2.6,1,2.6,2.7C110.5,36.5,109.3,37.6,107.9,37.6z
	 M83.2,29c-3.2,0-5.9,2.3-5.9,5.9s2.7,5.9,5.9,5.9s5.9-2.3,5.9-5.9S86.5,29,83.2,29z M83.2,37.5c-1.4,0-2.5-1-2.5-2.6v-0.1
	c0-1.4,1.2-2.5,2.5-2.5c1.4,0,2.6,1,2.6,2.6C85.8,36.4,84.7,37.5,83.2,37.5z M96.7,29c-1.3,0-2.7,0.8-3.3,1.9v-1.6H90v11.3h3.4v-6
	c0-1.7,0.9-2.3,2.1-2.3c1.1,0,2,0.8,2,2.3v6h3.4v-6.8C100.9,30.6,99.3,29,96.7,29z"/>
</svg>
