<?xml version="1.0" encoding="utf-8"?>
<!-- Generator: Adobe Illustrator 24.0.1, SVG Export Plug-In . SVG Version: 6.00 Build 0)  -->
<svg version="1.1" id="Layer_1" xmlns="http://www.w3.org/2000/svg" xmlns:xlink="http://www.w3.org/1999/xlink" x="0px" y="0px"
	 viewBox="0 0 140 70" style="enable-background:new 0 0 140 70;" xml:space="preserve">
<style type="text/css">
	.st0{fill:#FFFFFF;}
</style>
<path id="nextcloud" class="st0" d="M107.3,8.5c-6.2,0-11.5,3.7-14.1,8.9C90.2,7.4,81,0,70.1,0c-11,0-20.3,7.5-23.2,17.7
	c-2.5-5.4-7.9-9.2-14.2-9.2C24,8.5,17,15.6,17,24.3s7,15.8,15.7,15.8c6.3,0,11.7-3.8,14.2-9.2c2.9,10.2,12.2,17.7,23.2,17.7
	c10.9,0,20.1-7.4,23.1-17.5c2.6,5.3,7.9,8.9,14.1,8.9c8.6,0,15.7-7.1,15.7-15.8C123,15.6,116,8.5,107.3,8.5z M32.7,30.8
	c-3.7,0-6.5-2.9-6.5-6.5c0-3.7,2.9-6.5,6.5-6.5s6.5,2.9,6.5,6.5C39.1,28,36.4,30.8,32.7,30.8z M70.1,39.4c-8.3,0-14.9-6.7-14.9-15
	c0-8.4,6.6-15,14.9-15c8.3,0,14.9,6.7,14.9,15S78.3,39.4,70.1,39.4z M107.3,30.8c-3.7,0-6.5-2.9-6.5-6.5c0-3.7,2.9-6.5,6.5-6.5
	c3.7,0,6.5,2.9,6.5,6.5C113.8,28,111,30.8,107.3,30.8z M44.1,59.8c-2.6,0-4.8,1.9-4.8,5.1c0,3,2.2,5.1,5.1,5.1
	c1.5,0,2.7-0.7,3.2-1.1c0.2-0.2,0.3-0.4,0.1-0.6l-0.1-0.2c-0.1-0.3-0.4-0.3-0.6-0.1c-0.4,0.4-1.3,0.9-2.6,0.9c-2,0-3.7-1.4-3.8-3.9
	h6.9c0.3,0,0.5-0.2,0.5-0.5C48.1,61.7,46.7,59.8,44.1,59.8z M40.7,64c0.3-2,1.7-3,3.4-3c1.4,0,2.6,1,2.7,3H40.7z M36.7,56h-0.4
	c-0.3,0-0.5,0.2-0.5,0.5v10.6l-6.9-10.8l-0.1-0.1c0-0.2-0.2-0.2-0.3-0.2H28c-0.3,0-0.4,0.2-0.4,0.5v12.8c0,0.3,0.1,0.5,0.4,0.5h0.4
	c0.3,0,0.5-0.2,0.5-0.5V58.6l6.9,10.8l0.1,0.1l0,0c0,0,0.1,0,0.1,0.1c0,0,0,0,0.1,0l0,0c0,0,0.1,0,0.2,0h0.4c0.3,0,0.4-0.2,0.4-0.5
	V56.5C37,56.1,36.9,56,36.7,56z M56.7,66.6l-1.5-1.8l2.2-2.6l0,0l1.1-1.3c0.2-0.2,0.2-0.5-0.1-0.7l-0.3-0.1C58,60,57.9,60,57.8,60
	l0,0c-0.1,0-0.2,0.1-0.3,0.2l-1.8,2.1l-1.3,1.6l-2-2.4l-1.1-1.3C51.1,60,51,60,50.9,60s-0.2,0-0.4,0.1l-0.3,0.2
	c-0.2,0.2-0.2,0.4,0,0.7l1.8,2.1l1.5,1.8l-2.2,2.6l0,0l-1.1,1.3c-0.2,0.2-0.2,0.5,0.1,0.7l0.3,0.2c0.2,0.2,0.5,0.1,0.7-0.1l1.8-2.1
	l1.3-1.6l2,2.4l0,0l1.1,1.3c0.2,0.2,0.4,0.3,0.7,0.1l0.3-0.2c0.2-0.2,0.2-0.4,0-0.7L56.7,66.6z M64.4,68.6c-0.8,0-2.1-0.3-2.1-2.6
	v-4.9h2c0.3,0,0.5-0.1,0.5-0.4v-0.1c0-0.3-0.2-0.5-0.5-0.5h-2v-2.3c0-0.3-0.1-0.5-0.4-0.5h-0.4c-0.3,0-0.5,0.2-0.5,0.5v8.4
	c0,2.3,1.3,3.6,3.4,3.6c0.4,0,0.5-0.1,0.5-0.4v-0.3C64.9,68.7,64.8,68.6,64.4,68.6z M79.4,68.6c-0.4,0-1-0.2-1-1.4V56.7
	c0-0.3-0.5-0.5-0.8-0.5h-0.4c-0.3,0-0.1,0.2-0.1,0.5v10.8c0,2.1,1.4,2.4,2.2,2.4c0.4,0,0.5-0.2,0.5-0.5v-0.3
	C79.8,68.8,79.6,68.6,79.4,68.6z M101.1,60h-0.3c-0.3,0-0.5,0.2-0.5,0.5v5.3c0,1.5-1,2.9-2.9,2.9c-1.9,0-2.9-1.4-2.9-2.9v-5.3
	c0-0.3-0.2-0.5-0.5-0.5h-0.4c-0.3,0-0.4,0.2-0.4,0.5v5.7c0,2.5,1.9,3.8,4.1,3.8c2.3,0,4.1-1.2,4.1-3.8v-5.7
	C101.6,60.2,101.5,60,101.1,60z M111.6,56.1h-0.4c-0.3,0-0.2,0.2-0.2,0.5V61c0,0.4,0,0.7,0,0.7l0,0c0,0-0.8-1.9-3.2-1.9
	c-2.6,0-4.4,2-4.3,5c0,3,1.6,5.1,4.2,5.1c2.5,0,3.4-2,3.4-2l0,0c0,0-0.1,0.3-0.1,0.6v0.7c0,0.3,0.2,0.4,0.5,0.4h0.3
	c0.3,0,0.4-0.2,0.4-0.5V56.6C112.4,56.3,111.9,56.1,111.6,56.1z M108,68.8c-1.8,0-3-1.5-3.1-3.9c0-2.5,1.4-3.9,3.1-3.9
	c2.1,0,3.1,1.9,3.1,3.9C111.1,67.7,109.6,68.8,108,68.8z M74.7,67.9c-0.2-0.3-0.4-0.3-0.6-0.1c-0.4,0.4-1.4,1-2.7,1
	c-2.1,0-3.8-1.6-3.8-3.9c0-2.3,1.7-3.9,3.8-3.9c1.1,0,2,0.6,2.4,0.9c0.3,0.2,0.5,0.2,0.7-0.1l0.1-0.2c0.2-0.3,0.2-0.5,0-0.7
	c-0.5-0.4-1.5-1.1-3.2-1.1c-2.9,0-5.1,2.1-5.1,5.1s2.2,5.1,5.1,5.1c1.8,0,3-0.8,3.4-1.2c0.2-0.2,0.3-0.4,0.1-0.7L74.7,67.9z
	 M86.1,59.8c-2.8,0-5.1,2.2-5.1,5c0,2.9,2.3,5.1,5.1,5.1c2.8,0,5.1-2.2,5.1-5.1C91.1,62,88.9,59.8,86.1,59.8z M86.1,68.8
	c-2.1,0-3.8-1.7-3.8-4c0-2.2,1.7-3.8,3.8-3.8s3.8,1.6,3.8,3.8C89.9,67.1,88.2,68.8,86.1,68.8z"/>
</svg>
