<?xml version="1.0" encoding="utf-8"?>
<!-- Generator: Adobe Illustrator 24.0.1, SVG Export Plug-In . SVG Version: 6.00 Build 0)  -->
<svg version="1.1" id="Layer_1" xmlns="http://www.w3.org/2000/svg" xmlns:xlink="http://www.w3.org/1999/xlink" x="0px" y="0px"
	 viewBox="0 0 140 70" style="enable-background:new 0 0 140 70;" xml:space="preserve">
<style type="text/css">
	.st0{fill:#FFFFFF;}
</style>
<path id="octanerender" class="st0" d="M55,27.9h-2l0,0v2.2h-1h-0.3v1.7H53v5c0,1,0.4,1.9,1.1,2.4l0,0c0.6,0.5,1.4,0.7,2.4,0.7h0.3
	v-1.8h-0.3c-0.5,0-0.9-0.1-1.1-0.4c-0.3-0.3-0.4-0.6-0.4-1v-5.1h1.8v-1.5H55V27.9z M22.5,30.5L22.5,30.5c1.9-1.1,4.5-1.3,6.8-1
	l0.5-3.4c-7.3-1.5-10.9-1.6-15,0.3v-0.1c0-2.1,1.1-4.3,2.5-6.2L14.6,18l0,0c-5,5.5-6.9,8.5-7.3,12.9c0,0,0,0-0.1,0
	c-1.8-1-3.3-3.2-4.2-5.2l-3,1.2c2.3,7,4,10.1,7.7,12.7c0,0,0,0-0.1,0c-1.8,1.1-4.4,1.3-6.7,0.9l-0.5,3.5c7.3,1.5,10.9,1.6,15-0.3
	v0.1c0,2.1-1.1,4.3-2.5,6.2l2.7,2.1c5-5.5,6.8-8.5,7.2-12.9c0,0,0,0,0.1,0c1.8,1,3.3,3.2,4.2,5.2l3.2-1.2
	C27.8,36.1,26.2,33,22.5,30.5z M15.2,39.4c-2.5,0.1-4.6-1.9-4.7-4.3c-0.1-2.5,1.9-4.5,4.4-4.6l0,0c2.5-0.1,4.6,1.9,4.7,4.3
	C19.7,37.4,17.8,39.4,15.2,39.4z M65.5,39.1c0-0.1-0.1-0.2,0-0.2l0,0c0-0.2,0-0.7,0-1.4v-4.2c0-1.1-0.3-2-0.8-2.5
	c-0.6-0.6-1.4-0.9-2.5-0.9c-1,0-1.9,0.2-2.8,0.7L59,30.7l0.1,0.2l0.5,1.2l0.1,0.3l0.3-0.2c0.5-0.3,1.2-0.5,1.9-0.5
	c0.5,0,0.9,0.1,1.1,0.4c0.2,0.2,0.4,0.6,0.4,1.2V34c-0.5-0.2-1-0.3-1.7-0.3c-1,0-1.8,0.3-2.5,0.8c-0.8,0.6-1.2,1.4-1.2,2.4
	s0.3,1.8,1,2.4c0.6,0.5,1.4,0.7,2.4,0.7c0.8,0,1.5-0.3,2.1-0.7c0,0.2,0.1,0.3,0.2,0.5l0.1,0.1h2.1l-0.1-0.4
	C65.6,39.2,65.5,39.2,65.5,39.1z M63.3,37.5c-0.5,0.5-1.1,0.8-1.7,0.8c-0.6,0-0.9-0.1-1.2-0.3c-0.2-0.2-0.4-0.5-0.4-0.9
	c0-0.6,0.1-0.9,0.4-1.2c0.3-0.2,0.7-0.4,1.3-0.4c0.6,0,1.1,0.1,1.5,0.2L63.3,37.5L63.3,37.5z M38.5,29.9L38.5,29.9
	c-1.2,0-2.2,0.4-2.9,1.2c-0.8,0.9-1.2,2.2-1.2,3.9c0,1.7,0.4,3,1.2,3.9c0.7,0.8,1.7,1.2,2.9,1.2s2.1-0.4,2.9-1.2l0,0
	c0.8-0.9,1.2-2.2,1.2-3.9c0-1.7-0.4-3-1.2-3.9C40.7,30.3,39.7,29.9,38.5,29.9z M40,37.5c-0.3,0.5-0.8,0.8-1.5,0.8s-1.1-0.2-1.5-0.8
	c-0.4-0.6-0.5-1.4-0.5-2.6c0-1.2,0.2-2.1,0.5-2.6c0.3-0.5,0.8-0.8,1.5-0.8s1.1,0.2,1.5,0.8c0.3,0.5,0.5,1.4,0.5,2.6
	C40.5,36.1,40.3,37,40,37.5z M49.6,37.5c-0.4,0.6-1,0.8-1.7,0.8c-0.6,0-1.1-0.2-1.4-0.8C46.2,37,46,36.1,46,35c0-1.2,0.2-2,0.5-2.6
	c0.3-0.5,0.7-0.8,1.4-0.8c0.6,0,1,0.2,1.5,0.6l0.2,0.2l0.2-0.2l1-1L50.6,31c-0.7-0.8-1.6-1.2-2.7-1.2l0,0c-1.2,0-2.2,0.4-2.9,1.2
	c-0.8,0.9-1.1,2.2-1.1,3.9c0,1.7,0.4,3,1.2,3.9c0.7,0.8,1.7,1.2,2.8,1.2c1.2,0,2.2-0.5,3-1.4l0.2-0.2l-1.2-1.2L49.6,37.5z
	 M121.1,31.6l-0.5-0.5c-0.5-0.5-1.3-0.8-2.2-0.8c-0.8,0-1.5,0.3-2.1,1c-0.7,0.8-1.1,1.9-1.1,3.5c0,1.7,0.4,2.9,1.1,3.7
	c0.6,0.6,1.3,0.9,2.2,0.9c1,0,1.7-0.3,2.1-0.7l0.5-0.5v1.1h0.9V25.5h-0.9V31.6z M121.1,37.5L121.1,37.5c-0.5,0.8-1.3,1.2-2.3,1.2
	c-0.8,0-1.4-0.3-1.9-0.8c-0.5-0.6-0.7-1.6-0.7-3c0-1.1,0.2-2,0.5-2.7c0.3-0.7,0.9-1.1,1.6-1.1l0,0l0,0c0.1,0,0.2,0,0.3,0
	c1,0,1.8,0.4,2.4,1.2v0.1L121.1,37.5L121.1,37.5z M128.7,30.4c-1,0-1.8,0.3-2.5,1.1c-0.7,0.8-1.1,2-1.1,3.6c0,1.6,0.4,2.7,1.2,3.5
	c0.7,0.7,1.6,1,2.7,1c1,0,1.8-0.4,2.6-1.2l-0.5-0.5c-0.6,0.6-1.3,0.9-2.1,0.9s-1.5-0.3-2-0.9c-0.5-0.6-0.8-1.5-0.8-2.7l0,0h5.7v-0.7
	c0-1.4-0.3-2.4-0.9-3.2C130.4,30.8,129.7,30.4,128.7,30.4z M126.2,34.5v-0.3c0.1-1,0.3-1.7,0.7-2.3c0.4-0.5,1-0.8,1.8-0.8l0,0
	c0.7,0,1.3,0.3,1.6,0.8s0.5,1.3,0.6,2.3v0.3H126.2z M75,30.6c-0.5-0.5-1.3-0.7-2.3-0.7l0,0c-0.9,0-1.7,0.3-2.4,0.9v-0.7h-2v9.8h2v-7
	c0.7-0.7,1.5-1.1,2.2-1.1c0.6,0,1,0.2,1.2,0.5c0.2,0.3,0.3,0.7,0.3,1.5v6.2h2v-6.2C76,32.2,75.7,31.1,75,30.6z M138.7,30.5
	L138.7,30.5L138.7,30.5c-0.7,0-1.3,0.2-1.8,0.8l-0.4,0.4v-1.1h-1v8.7h1v-6.8v-0.1c0.5-0.8,1.2-1.2,2-1.2c0.3,0,0.7,0.1,1.1,0.3
	l0.4-0.6C139.6,30.6,139.2,30.5,138.7,30.5z M111.3,30.9c-0.4-0.4-1-0.6-2-0.6l0,0c-0.9,0-1.7,0.3-2.4,1l-0.5,0.4v-1.3h-1v8.7h1
	v-6.7l0.1-0.1c0.8-0.9,1.7-1.3,2.7-1.3c0.7,0,1.3,0.2,1.6,0.7c0.3,0.4,0.4,1,0.4,1.8v5.6h1v-5.6C112.1,32.3,111.8,31.4,111.3,30.9z
	 M82.1,29.9L82.1,29.9c-1.2,0-2.1,0.4-2.9,1.2c-0.8,1-1.2,2.3-1.2,4s0.4,3,1.3,3.9c0.8,0.8,1.8,1.2,3,1.2c1.2,0,2.3-0.5,3.2-1.5
	l0.2-0.2l-1.3-1.3l-0.2,0.2c-0.5,0.6-1.1,0.9-1.9,0.9c-0.7,0-1.2-0.2-1.6-0.7c-0.4-0.5-0.6-1.1-0.6-2h5.6v-1c0-1.5-0.4-2.7-1.1-3.5
	C84.1,30.3,83.2,29.9,82.1,29.9z M80.3,33.9c0.1-0.8,0.3-1.3,0.6-1.7c0.3-0.4,0.7-0.6,1.3-0.6c0.6,0,0.9,0.2,1.2,0.6
	c0.2,0.3,0.3,1,0.4,1.7H80.3z M98.9,30.4L98.9,30.4c-1,0-1.8,0.3-2.5,1.1c-0.7,0.8-1.1,2-1.1,3.6c0,1.6,0.4,2.7,1.2,3.5
	c0.7,0.7,1.5,1,2.6,1c1,0,1.8-0.4,2.6-1.2l-0.5-0.5c-0.6,0.6-1.3,0.9-2.1,0.9c-0.8,0-1.5-0.3-2-0.9c-0.5-0.6-0.8-1.5-0.8-2.7l0,0
	h5.7v-0.7c0-1.4-0.3-2.4-0.9-3.2C100.5,30.8,99.8,30.4,98.9,30.4z M96.4,34.5v-0.3c0.1-1,0.3-1.7,0.7-2.3c0.4-0.5,1-0.8,1.8-0.8l0,0
	c0.7,0,1.3,0.3,1.6,0.8s0.5,1.3,0.6,2.3v0.3H96.4z M90.4,31l-0.5,0.5v-1H89v8.7h0.9v-6.8v-0.1c0.5-0.8,1.3-1.2,2.1-1.2
	c0.3,0,0.7,0.1,1.1,0.3l0.4-0.6c-0.4-0.2-0.8-0.4-1.3-0.4C91.5,30.5,90.9,30.6,90.4,31z"/>
</svg>
