<?xml version="1.0" encoding="utf-8"?>
<!-- Generator: Adobe Illustrator 24.0.1, SVG Export Plug-In . SVG Version: 6.00 Build 0)  -->
<svg version="1.1" id="Layer_1" xmlns="http://www.w3.org/2000/svg" xmlns:xlink="http://www.w3.org/1999/xlink" x="0px" y="0px"
	 viewBox="0 0 140 70" style="enable-background:new 0 0 140 70;" xml:space="preserve">
<style type="text/css">
	.st0{fill:#FFFFFF;}
</style>
<path id="stackline" class="st0" d="M79.6,36.1c-0.1-0.1-0.1-0.2,0-0.3c1.8-2.2,3.5-4.3,5.3-6.4c0,0,0-0.1,0.1-0.1h-0.3
	c-1.3,0-2.6,0-3.9,0c-0.2,0-0.3,0.1-0.5,0.2c-2,2.6-4,5.2-6.1,7.8c-0.1,0.1-0.2,0.2-0.3,0.3V23c-1.4,0.3-2.7,0.6-4,0.9v23h4v-0.2
	c0-1.2,0-2.4,0-3.6c0-0.1,0-0.3,0.1-0.3c0.9-1.2,1.9-2.3,2.8-3.4c0,0,0-0.1,0.1-0.1c0.1,0.1,0.1,0.2,0.1,0.2
	c1.3,2.4,2.6,4.9,3.9,7.3C81,47,81.1,47,81.3,47c1.3,0,2.6,0,3.9,0h0.3c-0.1-0.1-0.1-0.2-0.1-0.3C83.4,43.1,81.5,39.6,79.6,36.1z
	 M66,32.3c-0.2-1.8-1.6-3-3.5-3c-2.4,0-4.9,0-7.3,0c-2,0-3.5,1.5-3.5,3.4c0,3.6,0,7.2,0,10.8c0,1.9,1.5,3.3,3.4,3.3
	c2.4,0,4.9,0,7.3,0c0.2,0,0.3,0,0.5,0c1.7-0.2,3-1.7,3-3.3c0-0.8,0-1.7,0-2.4v-0.2h-4.1c0,0.6,0,1.1,0,1.7s-0.4,1-1,1
	c-1.3,0-2.7,0-4,0c-0.7,0-1-0.4-1-1c0-2.9,0-5.9,0-8.7c0-0.6,0.4-1,1-1c1.3,0,2.7,0,4,0c0.6,0,1,0.4,1,1c0,0.5,0,1,0,1.4
	c0,0.1,0,0.1,0,0.2h4.1c0-0.5,0-1,0-1.5C66,33.4,66,32.8,66,32.3z M26,25c-1.3,0.3-2.6,0.6-3.9,0.8v3.4h-2.8v3.1H22
	c0,0.1,0,0.2,0,0.3c0,3.6,0,7.2,0,10.8c0,1.8,1.6,3.3,3.4,3.3c1.5,0,3,0,4.4,0c0.1,0,0.1,0,0.2,0v-3.2h-0.3c-0.9,0-1.7,0-2.6,0
	c-0.7,0-1.1-0.4-1.1-1.1c0-3.3,0-6.7,0-9.9c0-0.1,0-0.1,0-0.2h4v-3.1h-4.1L26,25L26,25z M16.9,37.8c-0.1-1.1-0.6-2-1.5-2.6
	c-0.7-0.5-1.4-0.8-2.2-1c-1.8-0.4-3.6-0.8-5.4-1.2c-0.8-0.2-1.6-0.3-2.4-0.5c-0.7-0.2-1-0.6-1-1.3c0-0.9,0-1.8,0-2.6
	c0-0.6,0.4-1,1-1c2,0,3.9,0,5.9,0c0.6,0,1,0.4,1,1s0,1.2,0,1.8c0,0.1,0,0.1,0,0.2h4.1c0-0.1,0-0.2,0-0.2c0-1,0-1.9,0-2.8
	c0-0.1,0-0.2,0-0.3c-0.2-2-1.8-3.3-3.8-3.3c-2.9,0-5.8,0-8.8,0c-2.2,0-3.8,1.7-3.8,3.7c0,1.4,0,2.7,0,4.1c0,0.3,0,0.6,0,0.9
	c0.1,1.1,0.6,2,1.5,2.6c0.7,0.5,1.5,0.8,2.3,1C5.5,36.6,7.3,37,9,37.4c0.8,0.2,1.6,0.3,2.4,0.5c0.7,0.2,1,0.6,1,1.3c0,1,0,1.9,0,2.8
	c0,0.7-0.4,1.1-1.1,1.1c-2.1,0-4.2,0-6.3,0c-0.7,0-1.1-0.4-1.1-1.1s0-1.4,0-2v-0.2H0.1V40c0,1.1,0,2.1,0,3.1c0,0.3,0,0.6,0.1,0.8
	c0.4,1.7,1.9,2.8,3.7,2.8c3.1,0,6.2,0,9.2,0c2.1,0,3.8-1.7,3.8-3.7c0-1.5,0-2.9,0-4.4C17,38.4,17,38.1,16.9,37.8z M44.3,29.3
	c-2.5,0-5,0-7.5,0c-1.7,0-3.1,1.3-3.3,2.8c-0.1,0.7,0,1.4,0,2.1l0,0h4c0-0.3,0-0.6,0-0.8c0-0.6,0.4-1,1-1c1.4,0,2.8,0,4.2,0
	c0.6,0,1,0.4,1,1c0,0.9,0,1.8,0,2.6c0,0.1,0,0.1,0,0.2c-0.1,0-0.1,0-0.1,0c-1.7,0.1-3.4,0.3-5.1,0.4c-0.9,0.1-1.8,0.2-2.6,0.5
	c-1.4,0.5-2.3,1.4-2.7,2.8c-0.4,1.5-0.3,2.8,0,4.3c0.3,1.4,1.2,2.3,2.6,2.5c1,0.2,2,0.2,3,0.1c1.2-0.1,2.3-0.5,3.2-1.4
	c0.5-0.5,0.9-1.1,1.3-1.6c0.1-0.2,0.3-0.4,0.4-0.5l0,0v3.4h4.1c0-0.1,0-0.1,0-0.2c0-4.7,0-9.4,0-14C47.7,30.8,46.2,29.3,44.3,29.3z
	 M43.4,42.2c-0.9,0.5-1.8,1-2.8,1.2c-0.9,0.2-1.7,0.3-2.6,0.2c-0.7-0.1-1-0.4-1.1-1c-0.1-0.6-0.1-1.3,0-1.9c0.1-0.6,0.4-1,1-1.1
	c0.7-0.2,1.4-0.4,2.1-0.5c1.1-0.2,2.3-0.3,3.4-0.5c0.1,0,0.1,0,0.2,0c0,0.1,0,0.1,0,0.2c0,1,0,2.1,0,3C43.6,42,43.6,42.1,43.4,42.2z
	 M88.1,46.8h4.1V23c-1.4,0.3-2.7,0.6-4.1,0.9V46.8z M135.9,42.7c0,0.7-0.4,1-1,1c-1.5,0-2.9,0-4.4,0c-0.7,0-1.1-0.4-1.1-1.1
	c0-1.1,0-2.3,0-3.3c0-0.1,0-0.1,0-0.2H140c0-0.1,0-0.1,0-0.2c0-2.2,0-4.2,0-6.4c0-0.1,0-0.1,0-0.2c-0.2-1.8-1.6-3-3.5-3
	c-2.6,0-5.2,0-7.8,0c-2,0-3.5,1.5-3.5,3.4c0,3.6,0,7.2,0,10.8c0,1.9,1.5,3.3,3.4,3.3c2.6,0,5.2,0,7.8,0c1.9,0,3.4-1.5,3.4-3.3
	c0-0.6,0-1.2,0-1.7v-0.2h-4.1C135.9,41.9,135.9,42.3,135.9,42.7z M129.4,33.5c0-0.7,0.4-1.1,1.1-1.1c1.5,0,2.9,0,4.4,0
	c0.7,0,1,0.4,1,1c0,1,0,2,0,2.9c0,0.1,0,0.1,0,0.2h-6.5c0-0.1,0-0.1,0-0.2C129.4,35.3,129.4,34.5,129.4,33.5z M121.2,32.1
	c-0.2-1.5-1-2.4-2.5-2.7c-1.3-0.3-2.6-0.3-3.8-0.1c-1.1,0.2-2.1,0.6-2.9,1.5c-0.5,0.5-0.9,1.1-1.3,1.7c-0.1,0.1-0.1,0.1-0.1,0.2l0,0
	v-3.3h-4.1v17.5h4.1v-0.3c0-4,0-8.1,0-12.1c0-0.2,0-0.3,0.2-0.3c1.1-0.7,2.3-1.1,3.6-1.3c0.7-0.1,1.4-0.2,2.1-0.1
	c0.5,0.1,0.8,0.3,0.9,0.8c0,0.2,0,0.4,0,0.6c0,4.1,0,8.3,0,12.4v0.3h4.1c0-0.1,0-0.2,0-0.3c0-4.4,0-8.8,0-13.2
	C121.3,32.9,121.2,32.5,121.2,32.1z M97.2,46.8h4.1V29.3h-4.1V46.8z M97.1,26.6h4.3V23c-1.5,0.3-2.9,0.6-4.3,0.9V26.6z"/>
</svg>
